<?xml version="1.0" encoding="utf-8"?>
<!-- Generator: Adobe Illustrator 25.0.0, SVG Export Plug-In . SVG Version: 6.00 Build 0)  -->
<svg version="1.1" id="Capa_1" xmlns="http://www.w3.org/2000/svg" xmlns:xlink="http://www.w3.org/1999/xlink" x="0px" y="0px"
	 viewBox="0 0 700 700" style="enable-background:new 0 0 700 700;" xml:space="preserve">
<style type="text/css">
	.st0{display:none;}
	.st1{display:inline;}
	.st2{fill:none;stroke:#000000;stroke-miterlimit:10;}
	.st3{display:none;fill:#141414;}
	.st4{fill:#EAB815;}
	.st5{fill:#141414;}
	.st6{fill:#FFFFFF;}
	.st7{fill:#A7D129;}
	.st8{display:none;fill:none;stroke:#000000;stroke-width:38;stroke-miterlimit:10;}
</style>
<g id="Capa_1_2_" class="st0">
	<g id="Capa_1_1_" class="st1">
		<g>
			<circle class="st2" cx="173.3" cy="209.4" r="150"/>
			<circle class="st2" cx="173.3" cy="209.4" r="110"/>
		</g>
		<g>
			<circle class="st2" cx="473.3" cy="209.4" r="150"/>
			<circle class="st2" cx="473.3" cy="209.4" r="110"/>
		</g>
		<g>
			<circle class="st2" cx="173.3" cy="509.4" r="150"/>
			<circle class="st2" cx="173.3" cy="509.4" r="110"/>
		</g>
		<g>
			<circle class="st2" cx="473.3" cy="509.4" r="150"/>
			<circle class="st2" cx="473.3" cy="509.4" r="110"/>
		</g>
		<g>
			<circle class="st2" cx="173.3" cy="359.4" r="150"/>
			<circle class="st2" cx="173.3" cy="359.4" r="110"/>
		</g>
		<g>
			<circle class="st2" cx="473.3" cy="359.4" r="150"/>
			<circle class="st2" cx="473.3" cy="359.4" r="110"/>
		</g>
	</g>
	<g id="Capa_2_1_" class="st1">
		<path class="st3" d="M350,100c-138.1,0-250,111.9-250,250s111.9,250,250,250s250-111.9,250-250S488.1,100,350,100z M350,525
			c-96.6,0-175-78.4-175-175s78.4-175,175-175c83.8,0,153.8,58.9,171,137.5H349.5v75H521C503.8,466.1,433.8,525,350,525z"/>
		<path class="st4" d="M350-6.2c-138.1,0-250,111.9-250,250v450h75v-450c0-96.6,78.4-175,175-175s175,78.4,175,175v450h75v-450
			C600,105.7,488.1-6.2,350-6.2z"/>
		<path class="st5" d="M520.9,418.7C521,418.7,521,418.7,520.9,418.7H349.5v75H521c-17.2,78.6-87.2,137.5-171,137.5
			c-96.6,0-175-78.4-175-175s78.4-175,175-175c37.8,0,72.8,12,101.4,32.4L505,260c-42.6-33.7-96.4-53.8-155-53.8
			c-138.1,0-250,111.9-250,250s111.9,250,250,250s250-111.9,250-250c0-12.8-1-25.3-2.8-37.5H520.9z"/>
	</g>
</g>
<g>
	<path class="st6" d="M154.5,428.4V226.1c0-27.2,8.5-49.6,25.5-67.1c17.9-18.3,41.2-27.4,70-27.4c28.2,0,51.6,9.1,70,27.4
		c17,16.9,25.5,39.3,25.5,67.1v185.3l-35.9,17h-1.9V295.3H192.3v116.1l-35.9,17H154.5z M192.3,260.9h115.3v-34.8
		c0-16.9-4.5-30.6-13.6-41c-11.2-13-25.9-19.5-44.1-19.5s-32.8,6.5-44.1,19.5c-9.1,10.5-13.6,24.1-13.6,41v34.8H192.3z"/>
</g>
<g>
	<path class="st7" d="M545.5,402.8V472c0,27.4-8.5,49.7-25.5,67.1c-17.9,18.3-41.2,27.4-70,27.4c-28.7,0-52.1-9.1-70-27.4
		c-17-17.4-25.5-39.8-25.5-67.1V368c0-27.4,8.5-49.7,25.5-67.1c17.9-18.3,41.2-27.4,70-27.4c29.7,0,53.1,9.1,70.1,27.4
		c17,18.3,25.4,39.4,25.4,63.3l-35.9,17h-1.9V368c0-16.9-4.5-30.6-13.6-41c-11.2-13-25.9-19.5-44.1-19.5s-32.8,6.5-44.1,19.5
		c-9.1,10.5-13.6,24.1-13.6,41v104c0,16.9,4.5,30.6,13.6,41c11.2,13,25.9,19.5,44.1,19.5s32.8-6.5,44.1-19.5
		c9.1-10.5,13.6-22.9,13.6-37.2v-38.6h-65.8v-1.9l15.3-32.5H545.5z"/>
</g>
<circle class="st8" cx="350" cy="350" r="300"/>
<rect x="46.5" y="390.6" class="st6" width="145.8" height="37.9"/>
<path class="st6" d="M608.2,458.3C565.9,559.2,466.2,630,350,630C209.1,630,92.6,526,72.9,390.6H33.3
	c20,157.1,154.1,278.6,316.7,278.6c138.3,0,256-87.9,300.4-210.9L608.2,458.3L608.2,458.3z"/>
<rect x="507.7" y="344" class="st7" width="145.3" height="37.9"/>
<path class="st7" d="M350,30.8c-164.2,0-299.4,123.9-317.2,283.4h39.5C89.9,176.4,207.5,70,350,70c154.6,0,280,125.4,280,280
	c0,10.8-0.6,21.4-1.8,31.9h39.5c1-10.5,1.6-21.1,1.6-31.9C669.2,173.7,526.3,30.8,350,30.8z"/>
</svg>
