<?xml version="1.0" encoding="utf-8"?>
<!-- Generator: Adobe Illustrator 25.0.0, SVG Export Plug-In . SVG Version: 6.00 Build 0)  -->
<svg version="1.1" id="Logo_One" xmlns="http://www.w3.org/2000/svg" xmlns:xlink="http://www.w3.org/1999/xlink" x="0px" y="0px"
	 viewBox="0 0 1800 700" style="enable-background:new 0 0 1800 700;" xml:space="preserve">
<style type="text/css">
	.st0{display:none;}
	.st1{display:inline;}
	.st2{fill:none;stroke:#000000;stroke-miterlimit:10;}
	.st3{display:none;fill:#141414;}
	.st4{fill:#EAB815;}
	.st5{fill:#141414;}
	.st6{fill:#EEEEEE;}
	.st7{fill:#A7D129;}
	.st8{display:none;fill:none;stroke:#000000;stroke-width:38;stroke-miterlimit:10;}
</style>
<g id="Capa_1_2_" class="st0">
	<g id="Capa_1_1_" class="st1">
		<g>
			<circle class="st2" cx="1056.9" cy="209.4" r="150"/>
			<circle class="st2" cx="1056.9" cy="209.4" r="110"/>
		</g>
		<g>
			<circle class="st2" cx="1356.9" cy="209.4" r="150"/>
			<circle class="st2" cx="1356.9" cy="209.4" r="110"/>
		</g>
		<g>
			<circle class="st2" cx="1056.9" cy="509.4" r="150"/>
			<circle class="st2" cx="1056.9" cy="509.4" r="110"/>
		</g>
		<g>
			<circle class="st2" cx="1356.9" cy="509.4" r="150"/>
			<circle class="st2" cx="1356.9" cy="509.4" r="110"/>
		</g>
		<g>
			<circle class="st2" cx="1056.9" cy="359.4" r="150"/>
			<circle class="st2" cx="1056.9" cy="359.4" r="110"/>
		</g>
		<g>
			<circle class="st2" cx="1356.9" cy="359.4" r="150"/>
			<circle class="st2" cx="1356.9" cy="359.4" r="110"/>
		</g>
	</g>
	<g id="Capa_2_1_" class="st1">
		<path class="st3" d="M1233.6,100c-138.1,0-250,111.9-250,250s111.9,250,250,250s250-111.9,250-250S1371.7,100,1233.6,100z
			 M1233.6,525c-96.6,0-175-78.4-175-175s78.4-175,175-175c83.8,0,153.8,58.9,171,137.5h-171.5v75h171.5
			C1387.4,466.1,1317.4,525,1233.6,525z"/>
		<path class="st4" d="M1233.6-6.2c-138.1,0-250,111.9-250,250v450h75v-450c0-96.6,78.4-175,175-175s175,78.4,175,175v450h75v-450
			C1483.6,105.7,1371.7-6.2,1233.6-6.2z"/>
		<path class="st5" d="M1404.5,418.7C1404.6,418.7,1404.6,418.7,1404.5,418.7h-171.4v75h171.5c-17.2,78.6-87.2,137.5-171,137.5
			c-96.6,0-175-78.4-175-175s78.4-175,175-175c37.8,0,72.8,12,101.4,32.4l53.6-53.6c-42.6-33.7-96.4-53.8-155-53.8
			c-138.1,0-250,111.9-250,250s111.9,250,250,250s250-111.9,250-250c0-12.8-1-25.3-2.8-37.5H1404.5z"/>
	</g>
</g>
<g>
	<path class="st6" d="M161,428.4V226.1c0-27.2,8.5-49.6,25.5-67.1c17.9-18.3,41.2-27.4,70-27.4c28.2,0,51.6,9.1,70,27.4
		c17,16.9,25.5,39.3,25.5,67.1v185.3l-35.9,17h-1.9V295.3H198.8v116.1l-35.9,17H161z M198.8,260.9h115.3v-34.8
		c0-16.9-4.5-30.6-13.6-41c-11.2-13-25.9-19.5-44.1-19.5s-32.8,6.5-44.1,19.5c-9.1,10.5-13.6,24.1-13.6,41v34.8H198.8z"/>
</g>
<g>
	<path class="st7" d="M552,402.8V472c0,27.4-8.5,49.7-25.5,67.1c-17.9,18.3-41.2,27.4-70,27.4c-28.7,0-52.1-9.1-70-27.4
		c-17-17.4-25.5-39.8-25.5-67.1V368c0-27.4,8.5-49.7,25.5-67.1c17.9-18.3,41.2-27.4,70-27.4c29.7,0,53.1,9.1,70.1,27.4
		c17,18.3,25.4,39.4,25.4,63.3l-35.9,17h-1.9V368c0-16.9-4.5-30.6-13.6-41c-11.2-13-25.9-19.5-44.1-19.5s-32.8,6.5-44.1,19.5
		c-9.1,10.5-13.6,24.1-13.6,41v104c0,16.9,4.5,30.6,13.6,41c11.2,13,25.9,19.5,44.1,19.5s32.8-6.5,44.1-19.5
		c9.1-10.5,13.6-22.9,13.6-37.2v-38.6h-65.8v-1.9l15.3-32.5H552z"/>
</g>
<circle class="st8" cx="1233.6" cy="350" r="300"/>
<rect x="53" y="390.6" class="st6" width="145.8" height="37.9"/>
<path class="st6" d="M614.7,458.3C572.4,559.2,472.7,630,356.5,630C215.6,630,99.1,526,79.4,390.6H39.8
	c19.9,157.2,154.1,278.7,316.7,278.7c138.3,0,256-87.9,300.4-210.9h-42.2V458.3z"/>
<rect x="514.1" y="344" class="st7" width="145.3" height="37.9"/>
<path class="st7" d="M356.5,30.8c-164.2,0-299.4,123.9-317.2,283.4h39.5C96.4,176.4,214,70,356.5,70c154.6,0,280,125.4,280,280
	c0,10.8-0.6,21.4-1.8,31.9h39.5c1-10.5,1.6-21.1,1.6-31.9C675.7,173.7,532.8,30.8,356.5,30.8z"/>
<g>
	<path class="st6" d="M730.7,301.3v-128c0-17.2,5.4-31.4,16.1-42.5c11.3-11.6,26.1-17.3,44.3-17.3c17.9,0,32.6,5.8,44.3,17.3
		c10.8,10.7,16.1,24.8,16.1,42.5v117.2l-22.7,10.8h-1.2v-84.2h-73v73.5l-22.7,10.8L730.7,301.3L730.7,301.3z M754.6,195.3h73v-22
		c0-10.7-2.9-19.3-8.6-26c-7.1-8.2-16.4-12.3-27.9-12.3s-20.8,4.1-27.9,12.3c-5.7,6.6-8.6,15.3-8.6,26V195.3z"/>
	<path class="st6" d="M899.4,301.3V121.8l22.7-10.8h1.2v179.4l-22.7,10.8h-1.2V301.3z"/>
	<path class="st6" d="M1064.5,243.5v7.5c0,13.2-4.9,24.6-14.8,34.3c-9.3,9-20.9,13.5-34.8,13.5c-13.8,0-25.4-4.5-34.8-13.5
		c-9.9-9.6-14.8-21-14.8-34.3v-40.7c0-13.2,4.9-24.6,14.8-34.3c9.3-9,20.9-13.5,34.8-13.5c13.6,0,25.2,4.5,34.8,13.5
		c9.9,9.2,14.8,19.5,14.8,30.8v0.2l-73,57.2c1.2,2.7,2.9,5,5,6.8c5,4.3,11.1,6.5,18.3,6.5s13.3-2.2,18.3-6.5s7.5-9.9,7.5-16.9
		l22.7-10.8h1.2V243.5z M989.1,240.1l50-40.6c-1.3-3.9-3.3-7-6-9.3c-5-4.3-11.1-6.5-18.3-6.5s-13.3,2.1-18.2,6.4
		c-5,4.3-7.5,11-7.5,20.2V240.1z"/>
	<path class="st6" d="M1080.6,350.3v-1.2l10.2-21.8c3-1.2,5.7-2.8,8.1-4.8c4.9-4.3,7.4-11,7.4-20.1V170.9l22.7-10.8h1.2v142.4
		c0,13.2-4.9,24.6-14.8,34.3C1106.2,345.8,1094.6,350.3,1080.6,350.3z M1108.1,138.5c-2.8-2.9-4.2-6.3-4.2-10.3s1.4-7.5,4.2-10.3
		c2.8-2.9,6.2-4.3,10.2-4.3s7.4,1.4,10.2,4.3c2.8,2.9,4.2,6.3,4.2,10.3s-1.4,7.5-4.2,10.3c-2.8,2.9-6.2,4.3-10.2,4.3
		C1114.3,142.8,1110.9,141.3,1108.1,138.5z"/>
	<path class="st6" d="M1263.1,290.5l-22.7,10.8h-1.2v-12.6c-6.4,6.8-15,10.2-25.7,10.2c-14.9,0-26.5-4.5-34.8-13.5
		s-12.4-19.7-12.4-31.9c0-12.8,4.5-23.6,13.5-32.5c8.7-8.6,19.9-12.9,33.7-12.9c9.8,0,18.4,3.4,25.7,10.2c0-14.1-2.5-23.4-7.4-27.9
		c-4.8-4.3-10.9-6.5-18.3-6.5h-29.1v-1.2l9.6-20.1h19.5c14,0,25.6,4.5,34.8,13.5c9.9,9.7,14.8,21.1,14.8,34.3V290.5z M1189.6,253.4
		c0,7.1,2.2,13,6.5,17.6c4.1,4.5,10,6.7,17.5,6.7c7.8,0,13.9-2.3,18.2-6.8c4.8-5.1,7.2-10.8,7.2-17.2c0-7.2-2.5-13-7.4-17.5
		s-10.9-6.7-17.8-6.7c-7.3,0-13.1,2.4-17.5,7.1C1191.8,241.3,1189.6,246.9,1189.6,253.4z"/>
	<path class="st6" d="M1299,301.3v-90.9c0-13.2,4.9-24.6,14.8-34.3c9.3-9,20.9-13.5,34.8-13.5c13.8,0,25.4,4.5,34.8,13.5
		c9.9,9.6,14.8,21,14.8,34.3v80.2l-22.7,10.8h-1.2v-90.9c0-9.2-2.5-15.9-7.5-20.2s-11.1-6.4-18.2-6.4s-13.3,2.1-18.2,6.4
		c-5,4.3-7.5,11-7.5,20.2v80.2l-22.7,10.8h-1.2V301.3z"/>
	<path class="st6" d="M1434.1,251v-40.7c0-13.2,4.9-24.6,14.8-34.3c9.3-9,20.9-13.5,34.8-13.5c10.5,0,19.1,3.4,25.7,10.2v-50.8
		l22.7-10.8h1.2v140c0,13.2-4.9,24.6-14.8,34.3c-9.3,9-20.9,13.5-34.8,13.5c-13.8,0-25.4-4.5-34.8-13.5
		C1439.1,275.8,1434.1,264.3,1434.1,251z M1458.1,251c0,9.2,2.5,15.9,7.5,20.2c5,4.3,11.1,6.4,18.2,6.4s13.3-2.1,18.2-6.4
		c5-4.3,7.5-11,7.5-20.2v-40.7c0-9.2-2.5-15.9-7.5-20.2s-11.1-6.4-18.2-6.4s-13.3,2.1-18.2,6.4c-5,4.3-7.5,11-7.5,20.2V251z"/>
	<path class="st6" d="M1575.3,301.3v-90.9c0-13.2,4.9-24.6,14.8-34.3c9.3-9,20.9-13.5,34.8-13.5h16.2v1.2l-9.6,20.1h-6.6
		c-7.2,0-13.3,2.1-18.2,6.4c-5,4.3-7.5,11-7.5,20.2v80.2l-22.7,10.8h-1.2V301.3z"/>
	<path class="st6" d="M1661.4,251v-40.7c0-13.2,4.9-24.6,14.8-34.3c9.3-9,20.9-13.5,34.8-13.5c13.8,0,25.4,4.5,34.8,13.5
		c9.9,9.6,14.8,21,14.8,34.3V251c0,13.2-4.9,24.6-14.8,34.3c-9.3,9-20.9,13.5-34.8,13.5c-13.8,0-25.4-4.5-34.8-13.5
		C1666.4,275.8,1661.4,264.3,1661.4,251z M1685.4,251c0,9.2,2.5,15.9,7.5,20.2c5,4.3,11.1,6.4,18.2,6.4s13.3-2.1,18.2-6.4
		c5-4.3,7.5-11,7.5-20.2v-40.7c0-9.2-2.5-15.9-7.5-20.2s-11.1-6.4-18.2-6.4s-13.3,2.1-18.2,6.4c-5,4.3-7.5,11-7.5,20.2V251z"/>
</g>
<g>
	<path class="st6" d="M851.5,462.3v43.8c0,17.3-5.4,31.5-16.1,42.5c-11.3,11.6-26.1,17.3-44.3,17.3s-32.9-5.8-44.3-17.3
		c-10.8-11-16.1-25.2-16.1-42.5v-65.8c0-17.3,5.4-31.5,16.1-42.5c11.3-11.6,26.1-17.3,44.3-17.3c18.8,0,33.6,5.8,44.3,17.3
		c10.7,11.6,16.1,24.9,16.1,40.1l-22.7,10.8h-1.2v-8.4c0-10.7-2.9-19.3-8.6-26c-7.1-8.2-16.4-12.3-27.9-12.3s-20.8,4.1-27.9,12.3
		c-5.7,6.6-8.6,15.3-8.6,26v65.8c0,10.7,2.9,19.3,8.6,26c7.1,8.2,16.4,12.3,27.9,12.3s20.8-4.1,27.9-12.3c5.7-6.6,8.6-14.5,8.6-23.6
		v-24.4H786v-1.2l9.7-20.6L851.5,462.3L851.5,462.3z"/>
	<path class="st6" d="M984.3,557.5l-22.7,10.8h-1.2v-12.6c-6.4,6.8-15,10.2-25.7,10.2c-14.9,0-26.5-4.5-34.8-13.5
		s-12.4-19.7-12.4-31.9c0-12.8,4.5-23.6,13.5-32.5c8.7-8.6,19.9-12.9,33.7-12.9c9.8,0,18.4,3.4,25.7,10.2c0-14.1-2.5-23.4-7.4-27.9
		c-4.8-4.3-10.9-6.5-18.3-6.5h-29.1v-1.2l9.6-20.1h19.5c14,0,25.6,4.5,34.8,13.5c9.9,9.7,14.8,21.1,14.8,34.3L984.3,557.5
		L984.3,557.5z M910.9,520.4c0,7.1,2.2,13,6.5,17.6c4.1,4.5,10,6.7,17.5,6.7c7.8,0,13.9-2.3,18.2-6.8c4.8-5.1,7.2-10.8,7.2-17.2
		c0-7.2-2.5-13-7.4-17.5s-10.9-6.7-17.8-6.7c-7.3,0-13.1,2.4-17.5,7.1C913.1,508.3,910.9,513.9,910.9,520.4z"/>
	<path class="st6" d="M1020.2,568.3v-90.9c0-13.2,4.9-24.6,14.8-34.3c9.3-9,20.9-13.5,34.8-13.5h16.1v1.2l-9.6,20.1h-6.6
		c-7.2,0-13.3,2.1-18.2,6.4c-5,4.3-7.5,11-7.5,20.2v80.2l-22.7,10.8h-1.1V568.3z"/>
	<path class="st6" d="M1205.6,510.5v7.5c0,13.2-4.9,24.6-14.8,34.3c-9.3,9-20.9,13.5-34.8,13.5c-13.8,0-25.4-4.5-34.8-13.5
		c-9.9-9.6-14.8-21-14.8-34.3v-40.7c0-13.2,4.9-24.7,14.8-34.3c9.3-9,20.9-13.5,34.8-13.5c13.6,0,25.2,4.5,34.8,13.5
		c9.9,9.3,14.8,19.6,14.8,30.9v0.2l-22.7,10.8h-1.2v-7.5c0-9.2-2.5-15.9-7.5-20.2c-5-4.3-11.1-6.4-18.2-6.4s-13.3,2.1-18.2,6.4
		c-5,4.3-7.5,11-7.5,20.2v40.7c0,9.2,2.5,15.9,7.5,20.2s11.1,6.4,18.2,6.4s13.3-2.2,18.2-6.5c5-4.3,7.5-9.9,7.5-16.9l22.7-10.8
		H1205.6z"/>
	<path class="st6" d="M1265.2,376.2h1.2l21.1,10L1261,424h-1.2l-14-6.6L1265.2,376.2z M1247.5,568.3V437.9l22.7-10.8h1.2v130.4
		l-22.7,10.8H1247.5z"/>
	<path class="st6" d="M1404.2,557.5l-22.7,10.8h-1.2v-12.6c-6.4,6.8-15,10.2-25.7,10.2c-14.9,0-26.5-4.5-34.8-13.5
		s-12.4-19.7-12.4-31.9c0-12.8,4.5-23.6,13.5-32.5c8.7-8.6,19.9-12.9,33.7-12.9c9.8,0,18.4,3.4,25.7,10.2c0-14.1-2.5-23.4-7.4-27.9
		c-4.8-4.3-10.9-6.5-18.3-6.5h-29.1v-1.2l9.6-20.1h19.5c14,0,25.6,4.5,34.8,13.5c9.9,9.7,14.8,21.1,14.8,34.3V557.5z M1330.8,520.4
		c0,7.1,2.2,13,6.5,17.6c4.1,4.5,10,6.7,17.5,6.7c7.8,0,13.9-2.3,18.2-6.8c4.8-5.1,7.2-10.8,7.2-17.2c0-7.2-2.5-13-7.4-17.5
		s-10.9-6.7-17.8-6.7c-7.3,0-13.1,2.4-17.5,7.1C1333,508.3,1330.8,513.9,1330.8,520.4z"/>
</g>
</svg>
