<?xml version="1.0" encoding="utf-8"?>
<!-- Generator: Adobe Illustrator 25.0.0, SVG Export Plug-In . SVG Version: 6.00 Build 0)  -->
<svg version="1.1" id="Capa_1" xmlns="http://www.w3.org/2000/svg" xmlns:xlink="http://www.w3.org/1999/xlink" x="0px" y="0px"
	 viewBox="0 0 700 700" style="enable-background:new 0 0 700 700;" xml:space="preserve">
<g>
	<path d="M309,283.9c0-22.7,18.5-41.2,41.1-41.2c22.7,0,41.1,18.5,41.1,41.2c0,22.6-18.4,41.1-41.1,41.1
		C327.5,325,309,306.5,309,283.9L309,283.9z"/>
	<path d="M434.9,401v31.3c0,4.4-3.6,8-8,8l-153.4,0c-4.5,0-8-3.6-8-8V401c0-33.1,26.8-59.9,59.8-59.9h49.8
		C408,341,434.9,367.9,434.9,401L434.9,401z"/>
	<path d="M631.6,470.7c-15.1-8.6-33.6-5.4-45.1,7.1l-28.9-16.6L619.5,354c1.4-2.5,1.4-5.5,0-8l-60.6-105l27.6-15.8
		c11.8,13.1,31,15.3,45.1,7.1c17.3-10,23.7-32,13.6-50c-10.2-17.7-32.9-23.3-50-13.5c-15.9,9.3-21.3,27.6-16.7,42.5l-27.6,15.9
		l-62.6-108.4c-1.4-2.5-4.1-4-7-4l-123.2,0V82.4c16.4-3.6,28.6-18.3,28.6-35.6c0-20.2-16.4-36.6-36.6-36.6
		c-20.1,0-36.5,16.4-36.5,36.6c0,17.3,12.2,32,28.5,35.6v32.3H218.9c-2.8,0-5.5,1.5-6.8,4l-62.6,108.5l-27.9-16.1
		c4.9-15.2-1-33.4-16.7-42.5c-17.1-9.8-39.9-4.2-49.9,13.5c-10.2,17.7-4.2,39.7,13.5,50c14.8,8.6,33.9,5.5,45.2-7.1l27.8,16.1
		L80.8,345.9c-1.5,2.6-1.5,5.6,0,8l61.8,107l-29.1,16.8c-11-12.2-29.5-15.7-45.1-7.1c-17.7,10.3-23.5,32.6-13.5,50
		c9.6,17.1,31.9,23.9,49.9,13.5c8.5-4.8,14.6-12.7,17.1-22.2c1.8-6.7,1.7-13.8-0.4-20.3l29.2-16.7l61.3,106.3c1.4,2.5,4.1,4,6.8,4
		h123.2v32.3c-16.3,3.6-28.5,18.3-28.5,35.6c0,20.2,16.4,36.6,36.5,36.6c20.2,0,36.6-16.4,36.6-36.6c0-17.3-12.2-32-28.6-35.6v-32.3
		h123.2c2.9,0,5.6-1.5,7-4l61.2-106.2l29,16.6c-4.8,15.4,1.2,33.6,16.7,42.5c18,10.4,40.1,3.6,50-13.5
		C655,503.4,649.4,481,631.6,470.7L631.6,470.7z M538.7,378.4l-63.4,5.7c-3,13.8-8.6,26.8-15.7,38.3l40.6,48.8l-33.4,33.6L418,464
		c-11.7,7.3-24.5,12.8-38.4,15.9l-5.7,63.3h-47.4l-5.7-63.3c-13.8-3.2-26.8-8.7-38.4-15.9l-48.7,40.8l-33.6-33.6l40.8-48.8
		c-7.2-11.6-12.7-24.5-15.8-38.3l-63.4-5.7V331l63.4-5.7c3.1-13.9,8.7-26.8,15.9-38.5l-40.9-48.7l33.6-33.5l48.7,40.8
		c11.7-7.3,24.6-12.7,38.4-15.9l5.7-63.3h47.4l5.7,63.3c13.9,3.1,26.8,8.7,38.4,15.9l48.8-40.8l33.4,33.5l-40.8,48.7
		c7.4,11.8,13,24.6,15.9,38.5l63.4,5.7V378.4z"/>
</g>
</svg>
